<?xml version="1.0" ?><svg id="Layer_1" style="enable-background:new 0 0 48 48;" version="1.1" viewBox="0 0 48 48" xml:space="preserve" xmlns="http://www.w3.org/2000/svg" xmlns:xlink="http://www.w3.org/1999/xlink"><style type="text/css">
	.st0{fill:#FF4676;}
	.st1{fill:#0F1C70;}
	.st2{fill:#FFE92E;}
	.st3{fill:#17D5D1;}
	.st4{fill:#FFFFFF;}
	.st5{fill:#EA2461;}
	.st6{fill:#F2F2F2;}
</style><g><g><g><g><circle class="st1" cx="24" cy="24" r="24"/></g></g></g><g><g><path class="st4" d="M18.7,32.5h-0.1c-0.6,0-1-0.5-1-1v-0.2c0-0.6,0.5-1,1-1h0c4.2-4.2,1.3-13.5,1.3-13.5h-0.7c-0.6,0-1-0.5-1-1     v-0.2c0-0.6,0.5-1,1-1h1.3c-0.9-0.9-1.5-2.1-1.5-3.5C19.1,8.2,21.3,6,24,6c2.7,0,4.9,2.2,4.9,4.9c0,1.4-0.6,2.6-1.5,3.5h1.3     c0.6,0,1,0.5,1,1v0.2c0,0.6-0.5,1-1,1h-0.7c0,0-2.9,9.2,1.3,13.5h0c0.6,0,1,0.5,1,1v0.2c0,0.6-0.5,1-1,1h-0.1     c2.1,1.6,3.4,4.1,3.4,6.9H15.3C15.3,36.5,16.6,34.1,18.7,32.5z"/></g></g></g></svg>